# xmcd CD database file
#
# Track frame offsets:
#	150
#	29100
#	40620
#	54362
#	72397
#
# Disc length: 1164 seconds
#
# Revision: 0
# Processed by: cddbd v1.5.1PL0 Copyright (c) Steve Scherf et al.
# Submitted via: CDex 1.51
#
DISCID=40048a05
DTITLE=Saps, the - 1...2...3... Drink
DYEAR=1900
DGENRE=Country
TTITLE0=And You Think I'm A Piece of Shit, U Should Meet The Booking Guy!
TTITLE1=Jump the Ride
TTITLE2=Just Like My Dad
TTITLE3=Sentimental
TTITLE4=Triguena
EXTD=
EXTT0=
EXTT1=
EXTT2=
EXTT3=
EXTT4=
PLAYORDER=
